<?xml version="1.0" encoding="UTF-8" standalone="no"?>
<svg
   height="300"
   width="500"
   viewBox="0 0 250 150"
   version="1.1"
   id="svg7376"
   xmlns:xlink="http://www.w3.org/1999/xlink"
   xmlns="http://www.w3.org/2000/svg"
   xmlns:svg="http://www.w3.org/2000/svg"
   xmlns:rdf="http://www.w3.org/1999/02/22-rdf-syntax-ns#"
   xmlns:cc="http://creativecommons.org/ns#">
  <defs
     id="defs7279">
    <clipPath
       id="cpSchild">
      <path
         d="M 3,3 H 263 V 188 A 130,130 0 0 1 3,188 Z"
         id="path7276" />
    </clipPath>
  </defs>
  <desc
     id="desc7283">Das Wappen des Berliner Bezirks Friedrichshain-Kreuzberg</desc>
  <g
     id="g5328"
     transform="translate(121.70979,-61.921202)">
    <path
       id="rect1719-1"
       style="fill:#e62518;stroke-width:0;stroke-linecap:square;stroke-miterlimit:8;stop-color:#000000"
       d="m -121.70979,61.921202 h 250 V 211.9212 h -250 z" />
    <path
       id="rect1719"
       style="fill:#ffffff;stroke-width:0;stroke-linecap:square;stroke-miterlimit:8;stop-color:#000000"
       d="m -121.70979,91.921204 h 250 V 181.9212 h -250 z" />
  </g>
  <g
     id="g7615"
     transform="matrix(0.17730499,0,0,0.17730499,84.6455,37.499999)">
    <path
       stroke-width="3"
       d="m 1.5,1.5 h 15 v 12 h 15 v -12 h 15 v 12 h 15 v -12 h 15 V 24 l -10,8.5 v 71 h -55 v -71 h 55 -55 L 1.5,24 Z"
       fill="#e62518"
       id="path7285"
       style="stroke:#000000" />
    <path
       stroke-width="2"
       d="M 2,14 H 76 V 24 H 2 M 21,14 V 24 H 39 V 14 h 18 v 10 m -42,0 6,8 h 12 l -2,-8 h 16 l -2,8 h 12 l 6,-8 M 12,89 H 66 V 75 H 12 V 61 H 66 V 47 H 12 39 V 61 H 21 V 47 h 9 V 33 h 18 v 14 h 9 v 14 h -9 v 14 h 9 v 14 h -9 v 14 H 30 V 89 H 21 V 75 h 9 V 61 75 h 9 v 14"
       fill="none"
       id="path7287"
       style="stroke:#000000" />
    <path
       d="m 35,75 h 8 V 58 a 4,4 0 0 0 -8,0 z"
       id="path7289"
       style="stroke:#000000" />
    <path
       stroke-width="3"
       d="m 66.5,49.5 h 17 v 11 h 15 v -11 h 17 v 54 h -49 z"
       fill="#e62518"
       id="path7292"
       style="stroke:#000000" />
    <path
       stroke-width="2"
       d="m 67,61 h 48 V 75 H 67 v 14 h 48 M 91,61 v 14 h 10 V 89 M 81,75 v 14 h 10 v 14"
       fill="none"
       id="path7294"
       style="stroke:#000000" />
    <g
       id="use7297"
       stroke="#000000"
       transform="translate(104)">
      <path
         stroke-width="3"
         d="m 1.5,1.5 h 15 v 12 h 15 v -12 h 15 v 12 h 15 v -12 h 15 V 24 l -10,8.5 v 71 h -55 v -71 h 55 -55 L 1.5,24 Z"
         fill="#e62518"
         id="path7497" />
      <path
         stroke-width="2"
         d="M 2,14 H 76 V 24 H 2 M 21,14 V 24 H 39 V 14 h 18 v 10 m -42,0 6,8 h 12 l -2,-8 h 16 l -2,8 h 12 l 6,-8 M 12,89 H 66 V 75 H 12 V 61 H 66 V 47 H 12 39 V 61 H 21 V 47 h 9 V 33 h 18 v 14 h 9 v 14 h -9 v 14 h 9 v 14 h -9 v 14 H 30 V 89 H 21 V 75 h 9 V 61 75 h 9 v 14"
         fill="none"
         id="path7499" />
      <path
         d="m 35,75 h 8 V 58 a 4,4 0 0 0 -8,0 z"
         id="path7501" />
    </g>
    <g
       id="use7299"
       stroke="#000000"
       transform="translate(104)">
      <path
         stroke-width="3"
         d="m 66.5,49.5 h 17 v 11 h 15 v -11 h 17 v 54 h -49 z"
         fill="#e62518"
         id="path7505" />
      <path
         stroke-width="2"
         d="m 67,61 h 48 V 75 H 67 v 14 h 48 M 91,61 v 14 h 10 V 89 M 81,75 v 14 h 10 v 14"
         fill="none"
         id="path7507" />
    </g>
    <g
       id="use7301"
       stroke="#000000"
       transform="translate(208)">
      <path
         stroke-width="3"
         d="m 1.5,1.5 h 15 v 12 h 15 v -12 h 15 v 12 h 15 v -12 h 15 V 24 l -10,8.5 v 71 h -55 v -71 h 55 -55 L 1.5,24 Z"
         fill="#e62518"
         id="path7511" />
      <path
         stroke-width="2"
         d="M 2,14 H 76 V 24 H 2 M 21,14 V 24 H 39 V 14 h 18 v 10 m -42,0 6,8 h 12 l -2,-8 h 16 l -2,8 h 12 l 6,-8 M 12,89 H 66 V 75 H 12 V 61 H 66 V 47 H 12 39 V 61 H 21 V 47 h 9 V 33 h 18 v 14 h 9 v 14 h -9 v 14 h 9 v 14 h -9 v 14 H 30 V 89 H 21 V 75 h 9 V 61 75 h 9 v 14"
         fill="none"
         id="path7513" />
      <path
         d="m 35,75 h 8 V 58 a 4,4 0 0 0 -8,0 z"
         id="path7515" />
    </g>
    <path
       stroke="#000000"
       stroke-width="2"
       d="m 122,41 h 42 v 35 a 21,21 0 1 1 -42,0 z"
       fill="#ffffff"
       id="path7303" />
    <path
       d="m 144.65493,45.264294 -2.83016,0.104392 c -0.13919,0.0116 -0.24358,0.08119 -0.24358,0.243579 0.0116,1.020715 0.20878,1.68186 0.93952,2.215415 -0.0928,0.568352 -0.0348,0.858328 0.55676,1.333888 0.058,-0.463961 0.24358,-0.672743 0.53355,-0.869927 0.0232,0.0116 0.0464,0.0116 0.058,0.0232 -0.0348,0.208783 -0.0348,0.429164 0.0116,0.556754 0.11599,0.324772 0.68434,0.336371 0.83513,0.104391 0.13918,0.336372 0.42916,0.347971 0.66114,0.347971 0.24358,0 0.35957,-0.173986 0.44076,-0.336372 0.13919,0.11599 0.27838,0.24358 0.40597,0.405966 0.40597,0.556753 0.47556,1.275893 0.47556,1.960236 l -0.38277,0.0348 V 51.11021 c -0.0116,-0.394367 -0.92792,-0.463961 -1.1367,-0.127589 -0.23198,-0.255179 -0.95112,-0.208782 -0.95112,0.197184 v 0.127589 c -0.16239,-0.208783 -0.28998,-0.429164 -0.39437,-0.649546 -0.28998,0.185585 -0.46396,0.324773 -0.41757,0.985918 -0.12759,0.0116 -0.25517,0.0232 -0.37117,0.0348 0.0116,0.765536 0.34798,0.974318 3.08535,0.916323 0.0696,0.765536 -0.69594,1.1947 -1.2643,1.55427 -1.48467,0.846729 -3.05054,1.774652 -3.89727,3.328922 -0.70754,1.229497 -0.88153,2.690975 -0.80033,4.106056 l 0.81193,-0.359569 0.0928,0.440763 c -1.46148,0.695941 -4.12925,2.111023 -5.88071,2.922955 -0.42916,0.197184 -1.54267,0.47556 -1.77465,0.08119 -0.80033,-1.380284 -1.43828,-2.424197 -2.3662,-3.479709 -1.65866,0.730739 -2.4242,1.403483 -3.05055,2.946154 1.31069,2.006632 3.47971,4.883192 7.07541,4.90639 3.72329,0.0232 6.95942,-1.345488 7.66696,-1.55427 l 0.15079,0.47556 c -0.47556,0.208783 -0.89313,0.35957 -1.39189,0.521956 0.64955,2.551787 1.40349,3.549304 3.15494,5.103574 l -0.35957,0.266777 c -0.31317,-0.185584 -0.84673,-0.777135 -1.1367,-1.055512 -3.72329,1.763053 -5.11518,3.526106 -6.0083,5.347153 -0.98592,2.192217 -0.80034,4.686008 -0.38277,6.994215 0.0812,0.382768 -0.33637,0.568353 -0.64955,0.452363 -0.85832,-0.197184 -1.33388,-1.055512 -2.15742,-1.368686 -0.37116,-0.162386 -0.82353,-0.313174 -1.22949,-0.255179 -0.95112,1.357087 -0.83513,2.04143 -0.70754,3.746487 1.25269,0.614749 2.59818,0.765536 3.99006,1.484676 0.91633,0.371169 1.79785,0.974318 2.84177,0.811932 0.59155,-0.05799 1.1831,-0.463961 1.24109,-1.090309 0.52196,-2.250212 1.2527,-4.639612 2.96935,-6.263476 0.82353,-0.811932 1.89064,-1.461478 2.94616,-1.960236 -0.41757,-1.600666 -0.73074,-3.201332 -0.69595,-4.871593 l 0.51036,-0.0232 c 0.37117,6.356269 2.06463,7.690157 5.04558,10.64791 0.30158,0.301575 0.27838,0.869927 -0.16239,1.043913 -0.57995,0.289975 -1.26429,0.313173 -1.92544,0.336371 -0.11599,1.647063 0.26678,3.259328 0.86993,3.920473 1.83265,-0.0348 3.73489,-1.484676 4.8368,-2.888159 0.46396,-0.579951 1.02071,-1.159903 1.46148,-1.728255 0.54515,-0.707541 -0.0464,-1.531072 -0.20879,-2.180618 -0.45236,-1.855845 -0.66114,-7.191399 -0.68434,-7.933737 l 0.64955,0.0116 0.0928,-1.345487 c -1.93704,-2.400999 -1.62387,-6.159085 -2.4242,-8.583282 -0.31317,-0.985918 -0.66114,-2.006632 -0.66114,-3.050545 0,-1.415082 1.60066,-4.07126 1.56587,-6.437462 -0.0116,-0.997516 -0.56836,-2.296608 -0.55676,-2.888158 0.0116,-1.716657 0.99752,-1.345488 0.97432,-4.917989 -0.0116,-0.985918 -0.12759,-1.716656 -0.38277,-2.725772 1.72826,-1.821048 -0.64954,-3.642095 -2.01823,-2.505391 C 150.9996,44.289976 150.86041,44 148.703,44 c -1.84425,0 -2.89976,0.498758 -4.04807,1.264294 z m -3.34052,10.636311 c -3.38691,-0.997517 -5.78791,-1.449879 -7.1334,-2.470594 -1.35709,-1.032313 -0.80033,-3.247728 -2.3894,-4.512022 -1.47308,-0.0464 -2.3546,0.614748 -2.98095,1.438279 2.54019,3.908874 -0.84673,4.859994 10.64791,11.425045 -0.0464,-3.630496 0.63794,-4.384433 1.85584,-5.880708 z m 7.01742,-8.432495 c -0.17399,0 -0.48716,-0.09279 -0.57996,-0.220382 -1.00911,-1.542671 -1.26429,-0.985917 -1.41508,-0.452362 -0.12759,0.47556 -0.68434,0.487159 -0.52195,-0.150787 0.40596,-1.565869 1.50787,-1.345488 2.87656,0.823531 z m 3.21293,-1.565869 c 0.27837,-0.371169 0.70754,-0.730739 1.1715,-0.881526 0.68434,-0.231981 0.96272,0.324772 0.41756,0.510357 -0.45236,0.162386 -0.83513,0.47556 -1.1599,0.800333 z m -8.89646,2.006632 c 0.17399,0.104391 0.41757,0.231981 0.77714,0.336372 -0.19719,0.162386 -0.38277,0.394367 -0.44077,0.649546 -0.31317,-0.220382 -0.44076,-0.626348 -0.33637,-0.985918 z m 1.85585,0.614749 c 0,0.150787 -0.0348,0.301574 -0.0812,0.371169 -0.11599,0.185584 -0.54515,0.173985 -0.63794,-0.08119 -0.0348,-0.104391 -0.0348,-0.289975 0.0116,-0.463961 0.23198,0.058 0.47556,0.104392 0.70754,0.173986 z m 0.13918,0.0348 c 0.31318,0.09279 0.61475,0.197183 0.88153,0.371169 -0.058,0.139188 -0.16239,0.278376 -0.37117,0.278376 -0.18558,0 -0.39437,-0.0116 -0.51036,-0.23198 -0.058,-0.11599 -0.0348,-0.278377 0,-0.417565 z m -0.62634,3.015748 -0.68435,0.05799 c -0.0348,-0.324773 0,-0.60315 0.25518,-0.788734 0.12759,0.23198 0.26678,0.452362 0.42917,0.649545 z m 0.11599,-0.0058 v -0.365369 c 0,-0.382768 0.81193,-0.35957 0.82353,0 v 0.289975 z m 0.92792,-0.08699 v -0.324772 c 0,-0.382768 0.93952,-0.35957 0.93952,-0.0116 v 0.255179 z"
       id="path7305"
       style="stroke-width:0.011599" />
    <g
       fill="#e62518"
       id="g7325"
       transform="matrix(0.01159903,0,0,0.01159903,127.00121,44)">
      <path
         d="m 1178,378 c 1,256 379,130 499,191 -2,-16 -5,-32 -10,-48 -61,-22 -148,-7 -241,-22 -187,-30 -210,-83 -210,-122 -1,-41 -38,-43 -38,1"
         id="path7307" />
      <g
         id="Krallen">
        <path
           id="Kralle"
           d="m 329,3474 c 0,0 35,-13 110,26 36,18 58,-51 28,-60 -92,-29 -138,34 -138,34" />
        <use
           xlink:href="#Kralle"
           transform="translate(-25,63)"
           id="use7310" />
        <use
           xlink:href="#Kralle"
           transform="translate(-44,128)"
           id="use7312" />
        <use
           xlink:href="#Kralle"
           transform="translate(-46,197)"
           id="use7314" />
        <use
           xlink:href="#Kralle"
           transform="translate(-37,267)"
           id="use7316" />
      </g>
      <use
         xlink:href="#Krallen"
         transform="matrix(0.9858,-0.3627,0.3627,0.9858,152.9,556.3)"
         id="use7319" />
      <use
         xlink:href="#Krallen"
         transform="matrix(0.6627,0.9484,-0.7177,0.8958,2492,-2040)"
         id="use7321" />
      <use
         xlink:href="#Krallen"
         transform="matrix(0.5009,0.7395,-0.7395,0.5009,2724,-1656)"
         id="use7323" />
    </g>
    <path
       stroke="#000000"
       stroke-width="3"
       d="m 11.5,103.5 h 263 V 290 a 131.5,131.5 0 0 1 -263,0 z"
       fill="#ffffff"
       id="path7328" />
    <path
       id="Bogen"
       stroke="#000000"
       stroke-width="2"
       fill="#e62518"
       d="m 100.5,231 h 5 v 4 h 5 v -4 h 5 v 4 h 5 v -4 h 5 v 4 h 5 v -4 h 5 v 4 h 5 v -4 h 5 v 4 h 5 v -4 h 5 v 4 h 5 v -4 h 5 v 4 h 5 v -4 h 5 v 4 h 5 v -4 h 5 v 61.5 a 45,38 0 0 0 -85,0 z m 0,9 h 85 v 19 h -85" />
    <g
       clip-path="url(#cpSchild)"
       id="g7335"
       transform="translate(10,102)">
      <use
         x="0"
         xlink:href="#Bogen"
         id="use7331"
         transform="translate(-139.5,-102)"
         y="0" />
      <use
         x="0"
         xlink:href="#Bogen"
         id="use7333"
         transform="translate(119.5,-102)"
         y="0" />
    </g>
    <g
       id="BTurm"
       transform="translate(10,102)">
      <g
         stroke="#000000"
         stroke-width="2"
         fill="#e62518"
         id="g7345">
        <path
           d="m 46,209 v -82 h 46 v 82 l 5,19 H 41 l 5,-19 23,-12 23,12 z m 8,-19 v -33 a 15,15 0 0 1 30,0 v 33 z m -8,-63 a 9,9 0 0 0 -6,-7.5 v -27 L 38,91 52,84 h 34 l 14,7 -2,1.5 v 27 A 9,9 0 0 0 92,127 Z M 40,92.5 h 58 v 24 H 40 M 52,84 V 59 L 69,15 86,59 v 25 z m -2,37.5 h 37"
           id="path7337" />
        <path
           d="M 49.5,59 V 46 h 7 v 4 h 5 v -4 h 5 v 4 h 5 v -4 h 5 v 4 h 5 v -4 h 7 v 13 z m 5.5,68 v -10.5 a 3,3 0 0 1 6,0 V 127 Z m 11,0 v -10.5 a 3,3 0 0 1 6,0 V 127 Z m 11,0 v -10.5 a 3,3 0 0 1 6,0 V 127 Z"
           id="path7339" />
        <path
           d="m 59,50 v 9 h 2 V 84 L 50,92.5 V 127 a 4,9 0 0 1 -4,9 M 79,50 v 9 h -2 v 25 l 11,8.5 V 127 a 4,9 0 0 0 4,9"
           fill="none"
           id="path7341" />
        <circle
           cy="15"
           cx="69"
           r="5.25"
           id="circle7343" />
      </g>
      <path
         d="m 58,165 v -11.5 a 2.5,2.5 0 0 1 5,0 V 165 Z m 8,0 v -15 a 3,3 0 0 1 6,0 v 15 z m 9,0 v -11.5 a 2.5,2.5 0 0 1 5,0 V 165 Z"
         id="path7347" />
      <circle
         cy="103"
         cx="58"
         r="4"
         id="circle7349" />
      <circle
         cy="103"
         cx="69"
         r="4"
         id="circle7351" />
      <circle
         cy="103"
         cx="80"
         r="4"
         id="circle7353" />
    </g>
    <use
       x="0"
       xlink:href="#BTurm"
       id="use7356"
       transform="translate(128)"
       y="0" />
    <g
       clip-path="url(#cpSchild)"
       id="g7373"
       transform="translate(10,102)">
      <g
         id="Welle">
        <path
           stroke="#000000"
           stroke-width="2"
           d="m -7,222.5 c 7.5,0 10,-7 17.5,-7 7.5,0 10,7 17.5,7 7.5,0 10,-7 17.5,-7 7.5,0 10,7 17.5,7 7.5,0 10,-7 17.5,-7 7.5,0 10,7 17.5,7 7.5,0 10,-7 17.5,-7 7.5,0 10,7 17.5,7 7.5,0 10,-7 17.5,-7 7.5,0 10,7 17.5,7 7.5,0 10,-7 17.5,-7 7.5,0 10,7 17.5,7 7.5,0 10,-7 17.5,-7 7.5,0 10,7 17.5,7 7.5,0 10,-7 17.5,-7 7.5,0 10,7 17.5,7 V 239 c -7.5,0 -10,-7 -17.5,-7 -7.5,0 -10,7 -17.5,7 -7.5,0 -10,-7 -17.5,-7 -7.5,0 -10,7 -17.5,7 -7.5,0 -10,-7 -17.5,-7 -7.5,0 -10,7 -17.5,7 -7.5,0 -10,-7 -17.5,-7 -7.5,0 -10,7 -17.5,7 -7.5,0 -10,-7 -17.5,-7 -7.5,0 -10,7 -17.5,7 -7.5,0 -10,-7 -17.5,-7 -7.5,0 -10,7 -17.5,7 -7.5,0 -10,-7 -17.5,-7 -7.5,0 -10,7 -17.5,7 -7.5,0 -10,-7 -17.5,-7 -7.5,0 -10,7 -17.5,7 z"
           fill="#0056ad"
           id="path7358" />
      </g>
      <use
         y="1"
         xlink:href="#Welle"
         id="use7361" />
      <use
         y="22"
         xlink:href="#Welle"
         id="use7363" />
      <use
         y="43"
         xlink:href="#Welle"
         id="use7365" />
      <use
         y="64"
         xlink:href="#Welle"
         id="use7367" />
      <g
         transform="translate(0,85)"
         id="g7371">
        <path
           d="m 63,222.5 c 7.5,0 10,-7 17.5,-7 7.5,0 10,7 17.5,7 7.5,0 10,-7 17.5,-7 7.5,0 10,7 17.5,7 7.5,0 10,-7 17.5,-7 7.5,0 10,7 17.5,7 7.5,0 10,-7 17.5,-7 7.5,0 10,7 17.5,7 L 132.3,246 Z"
           stroke="#000000"
           stroke-width="2"
           fill="#0056ad"
           id="path7369" />
      </g>
    </g>
  </g>
  <metadata
     id="metadata7649">
    <rdf:RDF>
      <cc:Work
         rdf:about="" />
    </rdf:RDF>
  </metadata>
</svg>
